<?xml version="1.0" standalone="no"?>
<!DOCTYPE svg PUBLIC "-//W3C//DTD SVG 20010904//EN"
 "http://www.w3.org/TR/2001/REC-SVG-20010904/DTD/svg10.dtd">
<svg version="1.0" xmlns="http://www.w3.org/2000/svg"
 width="512.000000pt" height="512.000000pt" viewBox="0 0 512.000000 512.000000"
 preserveAspectRatio="xMidYMid meet">
<metadata>
Created by potrace 1.11, written by Peter Selinger 2001-2013
</metadata>
<g transform="translate(0.000000,512.000000) scale(0.100000,-0.100000)"
fill="#000000" stroke="none">
<path d="M2524 4308 c-34 -16 -44 -52 -44 -152 l0 -94 -67 -6 c-637 -65 -1201
-457 -1488 -1034 -66 -132 -115 -273 -149 -423 -24 -109 -46 -272 -46 -341 l0
-33 27 40 c77 116 170 198 294 260 105 53 177 69 314 69 102 -1 132 -5 200
-27 160 -53 258 -128 383 -297 2 -3 13 9 25 25 100 139 267 252 430 290 34 8
65 15 70 15 13 0 9 -1427 -5 -1471 -15 -52 -73 -117 -122 -140 -54 -24 -148
-24 -201 0 -79 36 -122 97 -135 194 -11 74 -34 101 -86 101 -28 0 -42 -7 -62
-29 -22 -26 -24 -35 -19 -85 26 -248 253 -411 499 -359 159 34 270 154 297
320 7 40 11 328 11 766 l0 703 33 -7 c178 -33 347 -134 448 -269 23 -30 44
-54 48 -54 4 0 15 15 26 32 30 51 145 160 210 200 33 20 96 49 140 64 70 24
95 28 200 28 85 1 139 -5 185 -17 153 -42 301 -143 392 -268 28 -38 53 -67 56
-65 2 3 -1 58 -7 123 -59 581 -363 1081 -856 1403 -223 146 -535 255 -817 285
l-56 6 -4 105 c-3 102 -4 107 -31 130 -30 25 -58 29 -93 12z"/>
</g>
</svg>
